HIERARCHY
ROOT Hips
{
    OFFSET   0.000000   0.000000   0.000000
    CHANNELS 6 Xposition Yposition Zposition Zrotation Xrotation Yrotation
    JOINT Chest
    {
        OFFSET   0.000000   8.007230   0.000000
        CHANNELS 3 Zrotation Xrotation Yrotation
        JOINT Chest2
        {
            OFFSET   0.000000  22.077100   0.000000
            CHANNELS 3 Zrotation Xrotation Yrotation
            JOINT Neck
            {
                OFFSET   0.000000  23.255100   0.000000
                CHANNELS 3 Zrotation Xrotation Yrotation
                JOINT Head
                {
                    OFFSET   0.000000  14.370100   1.956600
                    CHANNELS 3 Zrotation Xrotation Yrotation
                    End Site
                    {
                        OFFSET   0.000000  19.566000   0.000000
                    }
                }
            }
            JOINT LeftCollar
            {
                OFFSET   3.911900  19.017000  -0.467063
                CHANNELS 3 Zrotation Xrotation Yrotation
                JOINT LeftShoulder
                {
                    OFFSET  10.383700   0.000000   0.000000
                    CHANNELS 3 Zrotation Xrotation Yrotation
                    JOINT LeftElbow
                    {
                        OFFSET  26.662100   0.001193   0.000980
                        CHANNELS 3 Zrotation Xrotation Yrotation
                        JOINT LeftWrist
                        {
                            OFFSET  28.869000  -0.000059  -0.000082
                            CHANNELS 3 Zrotation Xrotation Yrotation
                            JOINT LeftFinger0
                            {
                                OFFSET   2.044650  -2.323450   3.252850
                                CHANNELS 3 Zrotation Xrotation Yrotation
                                JOINT LeftFinger01
                                {
                                    OFFSET   3.088130   0.000000   0.000000
                                    CHANNELS 3 Zrotation Xrotation Yrotation
                                    JOINT LeftFinger02
                                    {
                                        OFFSET   2.639460   0.000000   0.000000
                                        CHANNELS 3 Zrotation Xrotation Yrotation
                                        End Site
                                        {
                                            OFFSET   2.582190   0.000000   0.000000
                                        }
                                    }
                                }
                            }
                            JOINT LeftFinger1
                            {
                                OFFSET   8.364480   0.000000   3.252850
                                CHANNELS 3 Zrotation Xrotation Yrotation
                                JOINT LeftFinger11
                                {
                                    OFFSET   4.646930   0.000000   0.000000
                                    CHANNELS 3 Zrotation Xrotation Yrotation
                                    JOINT LeftFinger12
                                    {
                                        OFFSET   2.323470   0.000000   0.000000
                                        CHANNELS 3 Zrotation Xrotation Yrotation
                                        End Site
                                        {
                                            OFFSET   2.273050   0.000000   0.000000
                                        }
                                    }
                                }
                            }
                            JOINT LeftFinger2
                            {
                                OFFSET   8.364490   0.000016   1.078090
                                CHANNELS 3 Zrotation Xrotation Yrotation
                                JOINT LeftFinger21
                                {
                                    OFFSET   5.111610   0.000000   0.000000
                                    CHANNELS 3 Zrotation Xrotation Yrotation
                                    JOINT LeftFinger22
                                    {
                                        OFFSET   2.788150   0.000016   0.000000
                                        CHANNELS 3 Zrotation Xrotation Yrotation
                                        End Site
                                        {
                                            OFFSET   2.727660   0.000000   0.000000
                                        }
                                    }
                                }
                            }
                            JOINT LeftFinger3
                            {
                                OFFSET   7.899780   0.000015  -1.078090
                                CHANNELS 3 Zrotation Xrotation Yrotation
                                JOINT LeftFinger31
                                {
                                    OFFSET   4.646930   0.000000   0.000000
                                    CHANNELS 3 Zrotation Xrotation Yrotation
                                    JOINT LeftFinger32
                                    {
                                        OFFSET   2.323470   0.000000   0.000000
                                        CHANNELS 3 Zrotation Xrotation Yrotation
                                        End Site
                                        {
                                            OFFSET   2.273050   0.000000   0.000000
                                        }
                                    }
                                }
                            }
                            JOINT LeftFinger4
                            {
                                OFFSET   7.435090   0.000000  -3.252850
                                CHANNELS 3 Zrotation Xrotation Yrotation
                                JOINT LeftFinger41
                                {
                                    OFFSET   3.717550   0.000000   0.000000
                                    CHANNELS 3 Zrotation Xrotation Yrotation
                                    JOINT LeftFinger42
                                    {
                                        OFFSET   1.858770   0.000000   0.000000
                                        CHANNELS 3 Zrotation Xrotation Yrotation
                                        End Site
                                        {
                                            OFFSET   1.818440   0.000000   0.000000
                                        }
                                    }
                                }
                            }
                        }
                    }
                }
            }
            JOINT RightCollar
            {
                OFFSET  -3.911910  19.017000  -0.467062
                CHANNELS 3 Zrotation Xrotation Yrotation
                JOINT RightShoulder
                {
                    OFFSET -10.383700   0.000014   0.000000
                    CHANNELS 3 Zrotation Xrotation Yrotation
                    JOINT RightElbow
                    {
                        OFFSET -26.662100   0.001225   0.001091
                        CHANNELS 3 Zrotation Xrotation Yrotation
                        JOINT RightWrist
                        {
                            OFFSET -28.869000  -0.000020  -0.000085
                            CHANNELS 3 Zrotation Xrotation Yrotation
                            JOINT RightFinger0
                            {
                                OFFSET  -2.044650  -2.323490   3.252850
                                CHANNELS 3 Zrotation Xrotation Yrotation
                                JOINT RightFinger01
                                {
                                    OFFSET  -3.088130   0.000000   0.000000
                                    CHANNELS 3 Zrotation Xrotation Yrotation
                                    JOINT RightFinger02
                                    {
                                        OFFSET  -2.639460   0.000000   0.000000
                                        CHANNELS 3 Zrotation Xrotation Yrotation
                                        End Site
                                        {
                                            OFFSET  -2.582190   0.000000   0.000000
                                        }
                                    }
                                }
                            }
                            JOINT RightFinger1
                            {
                                OFFSET  -8.364480   0.000000   3.252850
                                CHANNELS 3 Zrotation Xrotation Yrotation
                                JOINT RightFinger11
                                {
                                    OFFSET  -4.646930   0.000000   0.000000
                                    CHANNELS 3 Zrotation Xrotation Yrotation
                                    JOINT RightFinger12
                                    {
                                        OFFSET  -2.323470   0.000000   0.000000
                                        CHANNELS 3 Zrotation Xrotation Yrotation
                                        End Site
                                        {
                                            OFFSET  -2.273050   0.000000   0.000000
                                        }
                                    }
                                }
                            }
                            JOINT RightFinger2
                            {
                                OFFSET  -8.364480   0.000000   1.078090
                                CHANNELS 3 Zrotation Xrotation Yrotation
                                JOINT RightFinger21
                                {
                                    OFFSET  -5.111620   0.000000   0.000000
                                    CHANNELS 3 Zrotation Xrotation Yrotation
                                    JOINT RightFinger22
                                    {
                                        OFFSET  -2.788160   0.000000   0.000000
                                        CHANNELS 3 Zrotation Xrotation Yrotation
                                        End Site
                                        {
                                            OFFSET  -2.727660   0.000000   0.000000
                                        }
                                    }
                                }
                            }
                            JOINT RightFinger3
                            {
                                OFFSET  -7.899780   0.000000  -1.078090
                                CHANNELS 3 Zrotation Xrotation Yrotation
                                JOINT RightFinger31
                                {
                                    OFFSET  -4.646930   0.000000   0.000000
                                    CHANNELS 3 Zrotation Xrotation Yrotation
                                    JOINT RightFinger32
                                    {
                                        OFFSET  -2.323470   0.000000   0.000000
                                        CHANNELS 3 Zrotation Xrotation Yrotation
                                        End Site
                                        {
                                            OFFSET  -2.273050   0.000000   0.000000
                                        }
                                    }
                                }
                            }
                            JOINT RightFinger4
                            {
                                OFFSET  -7.435090   0.000000  -3.252850
                                CHANNELS 3 Zrotation Xrotation Yrotation
                                JOINT RightFinger41
                                {
                                    OFFSET  -3.717550   0.000000   0.000000
                                    CHANNELS 3 Zrotation Xrotation Yrotation
                                    JOINT RightFinger42
                                    {
                                        OFFSET  -1.858760   0.000000   0.000000
                                        CHANNELS 3 Zrotation Xrotation Yrotation
                                        End Site
                                        {
                                            OFFSET  -1.818440   0.000000   0.000000
                                        }
                                    }
                                }
                            }
                        }
                    }
                }
            }
        }
    }
    JOINT LeftHip
    {
        OFFSET   9.783030   0.000000   0.000000
        CHANNELS 3 Zrotation Xrotation Yrotation
        JOINT LeftKnee
        {
            OFFSET   0.000063 -41.789100   0.000608
            CHANNELS 3 Zrotation Xrotation Yrotation
            JOINT LeftAnkle
            {
                OFFSET   0.000048 -41.133200  -0.000184
                CHANNELS 3 Zrotation Xrotation Yrotation
                JOINT LeftToe
                {
                    OFFSET   0.000000  -6.358960  14.674500
                    CHANNELS 3 Zrotation Xrotation Yrotation
                    End Site
                    {
                        OFFSET   0.000000   0.000000   3.913200
                    }
                }
            }
        }
    }
    JOINT RightHip
    {
        OFFSET  -9.783030   0.000000   0.000000
        CHANNELS 3 Zrotation Xrotation Yrotation
        JOINT RightKnee
        {
            OFFSET   0.000071 -41.789100   0.001239
            CHANNELS 3 Zrotation Xrotation Yrotation
            JOINT RightAnkle
            {
                OFFSET   0.000037 -41.133200  -0.000166
                CHANNELS 3 Zrotation Xrotation Yrotation
                JOINT RightToe
                {
                    OFFSET   0.000000  -6.358960  14.674500
                    CHANNELS 3 Zrotation Xrotation Yrotation
                    End Site
                    {
                        OFFSET   0.000000   0.000000   3.913200
                    }
                }
            }
        }
    }
}
MOTION
Frames: 6
Frame Time:   0.016667
  1.745840  89.598400  -3.604460  -3.329440  -7.391880  -0.960262   1.453580   3.273820   0.565400   2.881760   6.560810   1.049870   0.538518   0.709160  -0.010175   0.884949   1.430230   0.373799  -2.791020  -0.017099  -0.045112 -78.157200  12.593300   1.433450  -1.166610  -3.830540 -16.936400  14.386700  -8.293690   5.703090  38.561200  34.177700 -72.418500 -29.554700   0.005589   0.003181  -9.777320   0.006329   0.005715 -34.683900  10.922800 -15.313200 -29.582700  -0.000236   0.001294 -20.692000   0.001213  -0.008065 -28.671600   2.526100  -4.596330 -40.992700   0.003010   0.000639 -27.299600   0.005322   0.000715 -28.660900   2.524820  -4.597060 -40.422200  -0.002986  -0.007683 -26.921200   0.000809  -0.006556 -32.700200   0.731727  -1.147820 -49.061100   0.001984  -0.002288 -32.674700   0.005331  -0.004654   7.055300   0.666119   3.719770  71.818400   3.948830  -6.493610  -0.812677 -11.373400  13.930200 -13.850200  -0.342139  -1.909230 -37.480300  32.408500  67.131700  31.996000   0.000212  -0.000835  10.998000   0.013095   0.011112  38.313700  10.526400  13.018600  32.333000  -0.013300  -0.002891  22.633100   0.000000   0.000000  31.558300   3.763610   6.093700  47.637500   0.000000   0.003339  31.726600  -0.000643   0.002806  30.274900   1.991200   3.401610  45.501000   0.000725   0.008951  30.303600   0.000569   0.003972  45.427800  -2.820250  -2.784020  68.244900   0.000446   0.006641  45.451100   0.000091   0.011730   2.477310   9.735920   2.124240   1.151430   0.074439   5.068790  -1.001110  -3.570090   3.000550  -0.000000   0.000000  -0.000000   3.866050   7.442890  -8.239380  -1.503290   2.656620 -10.807300  -0.255088  -3.356530   1.428430  -0.000000   0.000000  -0.000000
  1.736580  89.598400  -3.617490  -3.345730  -7.374190  -0.990898   1.455320   3.266090   0.574400   2.884790   6.545590   1.067990   0.543518   0.708726  -0.010169   0.893201   1.430230   0.373910  -2.791040  -0.017115  -0.029972 -78.157700  12.600000   1.434550  -1.166590  -3.830600 -16.933400  14.389900  -8.297820   5.694690  38.571100  34.188400 -72.441900 -29.543600   0.005580   0.003202  -9.771790   0.006331   0.005858 -34.683300  10.902600 -15.287000 -29.577800  -0.000236   0.001299 -20.692000   0.001211  -0.008066 -28.671300   2.526210  -4.603550 -40.992700   0.003005   0.000640 -27.299000   0.005320   0.000712 -28.660600   2.524920  -4.604270 -40.422200  -0.002983  -0.007676 -26.921200   0.000808  -0.006556 -32.700200   0.731744  -1.147870 -49.061100   0.001983  -0.002291 -32.674700   0.005333  -0.004655   7.055210   0.666098   3.726180  71.807700   3.962580  -6.493300  -0.816294 -11.350300  13.939100 -13.862300  -0.351482  -1.909230 -37.477800  32.424500  67.146900  32.011600   0.000214  -0.000840  11.005800   0.013100   0.011116  38.325000  10.520000  13.005000  32.340400  -0.013297  -0.002887  22.638200   0.000000   0.000000  31.563500   3.763260   6.093700  47.645500   0.000000   0.003343  31.732000  -0.000640   0.002809  30.281500   1.990830   3.401610  45.510900   0.000726   0.008951  30.310200   0.000569   0.003973  45.434800  -2.822790  -2.784000  68.255400   0.000449   0.006636  45.458100   0.000092   0.011728   2.489150   9.732480   2.143430   1.151820   0.037395   5.073820  -0.999803  -3.543220   3.007710  -0.000000   0.000000   0.000000   3.908810   7.422420  -8.307840  -1.531620   2.641280 -10.786300  -0.251689  -3.334460   1.504320   0.000000   0.000000   0.000000
  1.721590  89.598400  -3.639710  -3.372370  -7.347970  -1.042450   1.457840   3.254990   0.588781   2.889080   6.523780   1.096940   0.553866   0.708292  -0.010145   0.910264   1.430240   0.374021  -2.791060  -0.017226  -0.005547 -78.158600  12.606600   1.437850  -1.166570  -3.830660 -16.930500  14.395100  -8.302010   5.682540  38.587500  34.203300 -72.474200 -29.527600   0.005562   0.003223  -9.763820   0.006335   0.006056 -34.682700  10.868400 -15.242100 -29.570000  -0.000237   0.001307 -20.692100   0.001206  -0.008068 -28.671000   2.526310  -4.610760 -40.992700   0.002996   0.000642 -27.298500   0.005315   0.000705 -28.660200   2.525020  -4.611480 -40.422200  -0.002972  -0.007658 -26.921200   0.000805  -0.006554 -32.700200   0.731784  -1.147970 -49.061100   0.001979  -0.002299 -32.674700   0.005336  -0.004659   7.055040   0.665975   3.737230  71.787900   3.988640  -6.490630  -0.823142 -11.314100  13.947300 -13.874400  -0.360824  -1.909210 -37.475400  32.440500  67.162200  32.027900   0.000217  -0.000847  11.014000   0.013107   0.011119  38.340500  10.513500  12.991300  32.351600  -0.013293  -0.002883  22.646100   0.000000   0.000000  31.572200   3.762900   6.093700  47.658800   0.000000   0.003352  31.740800  -0.000633   0.002821  30.292600   1.990460   3.401610  45.527700   0.000729   0.008949  30.321400   0.000570   0.003976  45.445900  -2.827230  -2.783960  68.272000   0.000455   0.006624  45.469200   0.000096   0.011724   2.509210   9.711840   2.172920   1.152210   0.000351   5.085470  -0.998326  -3.516330   3.017790   0.000000   0.000000   0.000000   3.974520   7.385480  -8.407570  -1.576230   2.626100 -10.746000  -0.246890  -3.298620   1.612080  -0.000000   0.000000   0.000000
  1.709920  89.598400  -3.658500  -3.393440  -7.331570  -1.086540   1.459260   3.249230   0.599735   2.891420   6.512610   1.118980   0.565528   0.709889  -0.010090   0.929438   1.436010   0.374008  -2.786980  -0.020876   0.012524 -78.160100  12.598100   1.445560  -1.160630  -3.809530 -16.944000  14.398700  -8.292470   5.675880  38.599100  34.208900 -72.486200 -29.519100   0.005540   0.003219  -9.759550   0.006337   0.006136 -34.682300  10.840200 -15.205100 -29.563900  -0.000242   0.001315 -20.691800   0.001198  -0.012729 -28.671000   2.526280  -4.610420 -40.997300   0.002986   0.000643 -27.302700   0.005308   0.000695 -28.660100   2.524990  -4.611140 -40.432600  -0.002951  -0.007631 -26.928100   0.000804  -0.006550 -32.705700   0.731844  -1.148120 -49.069400   0.001976  -0.002306 -32.680300   0.005333  -0.004669   7.054480   0.663528   3.746410  71.768300   4.015380  -6.483580  -0.829281 -11.290300  13.944300 -13.869400  -0.357971  -1.906970 -37.466500  32.417700  67.133500  32.028900   0.000221  -0.000855  11.014400   0.013111   0.011118  38.348700  10.517000  12.992900  32.359400  -0.013288  -0.002881  22.652000   0.000000   0.000000  31.580500   3.764160   6.095150  47.671700   0.000000   0.003368  31.749400  -0.000626   0.002841  30.303600   1.991830   3.403280  45.545000   0.000734   0.008945  30.332900   0.000575   0.003981  45.455200  -2.831620  -2.783890  68.286100   0.000465   0.006604  45.478600   0.000102   0.011719   2.526840   9.646470   2.192040   1.153610   0.075434   5.101870  -1.002940  -3.543770   3.021960  -0.000000   0.000000   0.000000   4.017720   7.349920  -8.464420  -1.607070   2.632210 -10.700400  -0.237721  -3.272050   1.663760  -0.000000   0.000000   0.000000
  1.699960  89.598400  -3.678030  -3.412400  -7.323650  -1.127610   1.459740   3.246840   0.608446   2.891800   6.508010   1.136450   0.581298   0.713401  -0.010033   0.955330   1.446330   0.373913  -2.778740  -0.027544   0.029159 -78.161000  12.589700   1.451080  -1.152670  -3.788230 -16.966200  14.401400  -8.282870   5.672970  38.602200  34.210600 -72.489300 -29.515500   0.005513   0.003210  -9.757730   0.006340   0.006160 -34.684600  10.810300 -15.164300 -29.559000  -0.000248   0.001324 -20.691300   0.001188  -0.020112 -28.671100   2.526060  -4.608050 -41.005600   0.002974   0.000644 -27.309700   0.005297   0.000681 -28.660200   2.524780  -4.608760 -40.448500  -0.002926  -0.007596 -26.938700   0.000801  -0.006545 -32.714300   0.731912  -1.148270 -49.082500   0.001969  -0.002317 -32.688900   0.005330  -0.004682   7.054220   0.657031   3.756890  71.745600   4.047340  -6.473690  -0.835240 -11.267400  13.941300 -13.860700  -0.355119  -1.897190 -37.457700  32.394800  67.104800  32.029000   0.000224  -0.000861  11.014500   0.013119   0.011113  38.351400  10.525300  13.000300  32.363500  -0.013281  -0.002878  22.655100   0.000000   0.000000  31.585200   3.769910   6.103840  47.679400   0.000000   0.003389  31.754500  -0.000617   0.002868  30.310700   1.997790   3.412620  45.555400   0.000741   0.008940  30.339900   0.000583   0.003987  45.460300  -2.835390  -2.783830  68.294000   0.000479   0.006578  45.483800   0.000111   0.011711   2.543130   9.598280   2.206610   1.154950   0.150513   5.121740  -1.007690  -3.571230   3.023870  -0.000000   0.000000   0.000000   4.050030   7.311290  -8.489620  -1.634080   2.656050 -10.652900  -0.217580  -3.246460   1.683540  -0.000000   0.000000  -0.000000
  1.693920  89.598400  -3.697880  -3.426370  -7.331560  -1.159870   1.459360   3.252340   0.612736   2.890620   6.519060   1.144840   0.602304   0.717353  -0.009993   0.989882   1.454500   0.373286  -2.768890  -0.035136   0.044504 -78.157800  12.611800   1.450040  -1.148590  -3.793150 -16.985700  14.403500  -8.288270   5.674940  38.597900  34.213100 -72.486200 -29.529300   0.005482   0.003201  -9.764670   0.006348   0.004812 -34.694600  10.774700 -15.111800 -29.557100  -0.000254   0.001336 -20.690500   0.001178  -0.025436 -28.671800   2.521940  -4.599100 -41.015600   0.002957   0.000646 -27.316600   0.005282   0.000662 -28.660800   2.520670  -4.599790 -40.460100  -0.002899  -0.007556 -26.947000   0.000790  -0.006540 -32.721000   0.731978  -1.148370 -49.093000   0.001958  -0.002335 -32.695600   0.005330  -0.004697   7.059100   0.646400   3.770690  71.719800   4.084240  -6.461140  -0.840131 -11.244200  13.944600 -13.851000  -0.367251  -1.875990 -37.468200  32.408000  67.111300  32.025400   0.000223  -0.000863  11.012400   0.013137   0.011099  38.345900  10.537600  13.017300  32.361700  -0.013271  -0.002869  22.654800   0.000000   0.000000  31.583000   3.782670   6.125040  47.677900   0.000000   0.003415  31.753400  -0.000606   0.002900  30.310000   2.010850   3.435100  45.555400   0.000748   0.008931  30.339800   0.000594   0.003994  45.450600  -2.836830  -2.783780  68.279600   0.000496   0.006547  45.474200   0.000123   0.011701   2.554850   9.630910   2.213240   1.156140   0.075422   5.146580  -1.005430  -3.528330   3.024500  -0.000000   0.000000  -0.000000   4.063890   7.270730  -8.466080  -1.655530   2.704880 -10.612600  -0.183828  -3.219170   1.654480  -0.000000   0.000000   0.000000
